<svg width="766" height="1361" viewBox="0 0 766 1361" fill="none" xmlns="http://www.w3.org/2000/svg">
<path d="M734.9 1360.9H30.7002C13.8002 1360.9 0.100098 1347.2 0.100098 1330.3V30.6C0.100098 13.7 13.8002 0 30.7002 0H734.9C751.8 0 765.5 13.7 765.5 30.6V1330.2C765.6 1347.2 751.9 1360.9 734.9 1360.9Z" fill="url(#paint0_linear_723_332)"/>
<path d="M274.5 475.3C274.5 475.3 306.6 437.1 323.4 437.1C340.2 437.1 390.2 535.7 410.4 529.4C430.6 523.1 437.3 492.5 463.9 524.5C490.4 556.4 597.1 679.5 597.1 679.5L458.8 713.9L274.5 475.3Z" fill="url(#paint1_linear_723_332)"/>
<path d="M25.3 338.2C25.3 338.2 78.7 284.3 104.4 284.3C128.7 284.3 202.6 424.2 202.6 424.2L87.9 499.3L25.3 338.2Z" fill="url(#paint2_linear_723_332)"/>
<path d="M765.6 739.5C765.6 739.5 692.7 596.7 658.5 596.7C649.8 596.7 542.5 693.9 475.1 642.3C420.7 600.7 294.5 448.8 247.7 391.6C238 379.8 220.4 377.7 208.1 387C184.1 405.1 147.6 429.5 138.3 417.8C124 399.9 0 225.7 0 225.7V739.5H765.6Z" fill="url(#paint3_linear_723_332)"/>
<path d="M0.100098 444.8C0.100098 444.8 29.2001 396.9 54.0001 410.1C67.4001 417.2 147.8 527.3 162.1 531.4C176.4 535.5 201.9 489.6 249.8 552.8C297.7 616 425.2 739.4 425.2 739.4H0.200195V444.8H0.100098Z" fill="url(#paint4_linear_723_332)"/>
<path d="M632.3 412.3C582.5 412.3 542.2 372 542.2 322.2C542.2 305.7 546.6 290.2 554.4 277C521.7 290.5 498.6 322.7 498.6 360.3C498.6 410.1 538.9 450.4 588.7 450.4C622 450.4 651 432.4 666.6 405.6C656.1 409.9 644.5 412.3 632.3 412.3Z" fill="#E0F9FC"/>
<path d="M765.6 739.5H0.100098V1330.3H765.6V739.5Z" fill="url(#paint5_linear_723_332)"/>
<path d="M53.9 37C50.5 37 47.8 39.7 47.8 43.1C47.8 46.5 50.5 49.2 53.9 49.2C57.3 49.2 60 46.5 60 43.1C60 39.8 57.3 37 53.9 37Z" fill="url(#paint6_linear_723_332)"/>
<path d="M408.7 290.9C405.3 290.9 402.6 293.6 402.6 297C402.6 300.4 405.3 303.1 408.7 303.1C412.1 303.1 414.8 300.4 414.8 297C414.8 293.7 412 290.9 408.7 290.9Z" fill="url(#paint7_linear_723_332)"/>
<path d="M168.4 80.9001C165 80.9001 162.3 83.6002 162.3 87.0002C162.3 90.4002 165 93.1002 168.4 93.1002C171.8 93.1002 174.5 90.4002 174.5 87.0002C174.5 83.6002 171.8 80.9001 168.4 80.9001Z" fill="url(#paint8_linear_723_332)"/>
<path d="M480 43.2002C476.6 43.2002 473.9 45.9002 473.9 49.3002C473.9 52.7002 476.6 55.4002 480 55.4002C483.4 55.4002 486.1 52.7002 486.1 49.3002C486.1 45.9002 483.4 43.2002 480 43.2002Z" fill="url(#paint9_linear_723_332)"/>
<path d="M655.4 136.1C652 136.1 649.3 138.8 649.3 142.2C649.3 145.6 652 148.3 655.4 148.3C658.8 148.3 661.5 145.6 661.5 142.2C661.5 138.8 658.8 136.1 655.4 136.1Z" fill="url(#paint10_linear_723_332)"/>
<path d="M690.9 66.9001C688.7 66.9001 687 68.7001 687 70.8001C687 73.0001 688.8 74.7002 690.9 74.7002C693.1 74.7002 694.8 72.9001 694.8 70.8001C694.8 68.7001 693 66.9001 690.9 66.9001Z" fill="url(#paint11_linear_723_332)"/>
<path d="M80.9 138.3C78.7 138.3 77 140.1 77 142.2C77 144.4 78.8 146.1 80.9 146.1C83.1 146.1 84.8 144.3 84.8 142.2C84.8 140 83.1 138.3 80.9 138.3Z" fill="url(#paint12_linear_723_332)"/>
<path d="M202.6 264.3C200.4 264.3 198.7 266.1 198.7 268.2C198.7 270.4 200.5 272.1 202.6 272.1C204.8 272.1 206.5 270.3 206.5 268.2C206.5 266.1 204.8 264.3 202.6 264.3Z" fill="url(#paint13_linear_723_332)"/>
<path d="M291.6 348.1C289.4 348.1 287.7 349.9 287.7 352C287.7 354.2 289.5 355.9 291.6 355.9C293.8 355.9 295.5 354.1 295.5 352C295.5 349.9 293.7 348.1 291.6 348.1Z" fill="url(#paint14_linear_723_332)"/>
<path d="M270.6 35.3C268.4 35.3 266.7 37.1001 266.7 39.2001C266.7 41.4001 268.5 43.1001 270.6 43.1001C272.8 43.1001 274.5 41.3001 274.5 39.2001C274.5 37.1001 272.7 35.3 270.6 35.3Z" fill="url(#paint15_linear_723_332)"/>
<path d="M541.2 33.1001C539 33.1001 537.3 34.9001 537.3 37.0001C537.3 39.2001 539.1 40.9001 541.2 40.9001C543.4 40.9001 545.1 39.1001 545.1 37.0001C545.1 34.9001 543.4 33.1001 541.2 33.1001Z" fill="url(#paint16_linear_723_332)"/>
<path d="M649.3 308.4C647.1 308.4 645.4 310.2 645.4 312.3C645.4 314.5 647.2 316.2 649.3 316.2C651.5 316.2 653.2 314.4 653.2 312.3C653.2 310.1 651.4 308.4 649.3 308.4Z" fill="url(#paint17_linear_723_332)"/>
<path d="M274.5 232.3C272.3 232.3 270.6 234.1 270.6 236.2C270.6 238.4 272.4 240.1 274.5 240.1C276.7 240.1 278.4 238.3 278.4 236.2C278.4 234 276.6 232.3 274.5 232.3Z" fill="url(#paint18_linear_723_332)"/>
<path d="M649.3 268.2C645.9 268.2 643.2 270.9 643.2 274.3C643.2 277.7 645.9 280.4 649.3 280.4C652.7 280.4 655.4 277.7 655.4 274.3C655.4 271 652.6 268.2 649.3 268.2Z" fill="url(#paint19_linear_723_332)"/>
<path d="M252.9 775.3C171.7 775.3 99.3 777.4 52.5 780.7C99.3 784 171.7 786.1 252.9 786.1C334.1 786.1 406.5 784 453.3 780.7C406.5 777.5 334.2 775.3 252.9 775.3Z" fill="url(#paint20_linear_723_332)"/>
<path d="M243.1 817.7C212.7 817.7 185.6 819.8 168 823.1C185.5 826.4 212.6 828.5 243.1 828.5C273.5 828.5 300.6 826.4 318.2 823.1C300.6 819.9 273.5 817.7 243.1 817.7Z" fill="url(#paint21_linear_723_332)"/>
<path d="M632 756.2C590.2 756.2 552.9 758.3 528.8 761.6C552.9 764.9 590.2 767 632 767C673.8 767 711.1 764.9 735.2 761.6C711.1 758.3 673.9 756.2 632 756.2Z" fill="url(#paint22_linear_723_332)"/>
<path d="M726 778C715 778 705.1 779.1 698.8 780.7C705.2 782.3 715 783.4 726 783.4C737 783.4 746.9 782.3 753.2 780.7C746.9 779.1 737 778 726 778Z" fill="url(#paint23_linear_723_332)"/>
<path d="M379 802.2C365.2 802.2 353 803.3 345 804.9C352.9 806.5 365.2 807.6 379 807.6C392.8 807.6 405 806.5 413 804.9C405 803.3 392.8 802.2 379 802.2Z" fill="url(#paint24_linear_723_332)"/>
<path d="M337.2 860.2C307.1 860.2 280.4 861.3 263.1 862.9C280.4 864.5 307.2 865.6 337.2 865.6C367.3 865.6 394 864.5 411.3 862.9C394 861.2 367.3 860.2 337.2 860.2Z" fill="url(#paint25_linear_723_332)"/>
<path d="M147.3 846.7C117.2 846.7 90.5002 847.8 73.2002 849.4C90.5002 851 117.3 852.1 147.3 852.1C177.4 852.1 204.1 851 221.4 849.4C204.1 847.7 177.4 846.7 147.3 846.7Z" fill="url(#paint26_linear_723_332)"/>
<path d="M413 837.5C382.9 837.5 356.2 838.6 338.9 840.2C356.2 841.8 383 842.9 413 842.9C443.1 842.9 469.8 841.8 487.1 840.2C469.8 838.6 443 837.5 413 837.5Z" fill="url(#paint27_linear_723_332)"/>
<path d="M0.100098 851.1C0.100098 851.1 191.6 850.1 475.2 1057.6C753.9 1261.5 677.4 1360.9 677.4 1360.9L0.100098 1330.3V851.1V851.1Z" fill="url(#paint28_linear_723_332)"/>
<path d="M34.1 853.8L21.6 873.7H33.9C32.5 876.5 30.9 879.5 29.1 882.7H125C123.2 879.5 121.6 876.5 120.2 873.7H132.5L120 853.8L135.9 854.5C130.9 848.6 124.1 839.5 124.1 839.5H131.7C121.7 832.5 110.1 807.9 102.8 790.5L111.6 793.6L100.4 772.2H114.1C96.9 758.8 77.1 699 77.1 699C77.1 699 57.4 758.8 40.1 772.2H53.8L42.6 793.6L51.4 790.5C44.1 807.9 32.5 832.5 22.5 839.5H30.1C30.1 839.5 23.4 848.6 18.3 854.5L34.1 853.8Z" fill="url(#paint29_linear_723_332)"/>
<path d="M0.0999756 1330.3C0.0999756 1347.2 13.8001 1360.9 30.7001 1360.9H734.9C751.8 1360.9 765.5 1347.2 765.5 1330.3V828C409.7 859.1 0 1049.9 0 1049.9V1330.3H0.0999756Z" fill="url(#paint30_linear_723_332)"/>
<path d="M0.0999756 1330.3C0.0999756 1347.2 13.8001 1360.9 30.7001 1360.9H734.9C751.8 1360.9 765.5 1347.2 765.5 1330.3V828C409.7 859.1 0 1049.9 0 1049.9V1330.3H0.0999756Z" fill="url(#paint31_linear_723_332)"/>
<path d="M567.9 834.1L546.8 867.6H567.5C565.1 872.3 562.4 877.4 559.4 882.8H720.7C717.7 877.4 715 872.4 712.6 867.6H733.3L712.2 834.1L738.9 835.3C730.4 825.4 719.1 810.1 719.1 810.1H731.8C715 798.3 695.4 756.9 683.1 727.6L697.8 732.8L679 696.9H702.1C673.1 674.4 639.9 573.8 639.9 573.8C639.9 573.8 606.7 674.4 577.7 696.9H600.8L582 732.8L596.7 727.6C584.4 756.9 564.8 798.2 548 810.1H560.7C560.7 810.1 549.4 825.4 540.9 835.3L567.9 834.1Z" fill="url(#paint32_linear_723_332)"/>
<path d="M415.9 883.6L398.9 910.5H415.5C413.6 914.3 411.4 918.4 409 922.7H538.7C536.3 918.4 534.1 914.3 532.2 910.5H548.8L531.8 883.6L553.3 884.5C546.5 876.6 537.4 864.3 537.4 864.3H547.6C534.1 854.8 518.4 821.6 508.5 798L520.3 802.2L505.2 773.3H523.8C500.5 755.2 473.8 674.4 473.8 674.4C473.8 674.4 447.1 755.3 423.8 773.3H442.4L427.3 802.2L439.1 798C429.2 821.6 413.5 854.8 400 864.3H410.2C410.2 864.3 401.1 876.6 394.3 884.5L415.9 883.6Z" fill="url(#paint33_linear_723_332)"/>
<defs>
<linearGradient id="paint0_linear_723_332" x1="382.826" y1="631.521" x2="382.826" y2="30.6296" gradientUnits="userSpaceOnUse">
<stop offset="0.00243902" stop-color="#A4E5F4"/>
<stop offset="0.4" stop-color="#60ACC4"/>
<stop offset="1" stop-color="#352968"/>
</linearGradient>
<linearGradient id="paint1_linear_723_332" x1="419.519" y1="636.202" x2="454.987" y2="507.745" gradientUnits="userSpaceOnUse">
<stop offset="0.00243902" stop-color="#5599B7"/>
<stop offset="1" stop-color="#407DA0"/>
</linearGradient>
<linearGradient id="paint2_linear_723_332" x1="105.944" y1="408.632" x2="137.386" y2="301.573" gradientUnits="userSpaceOnUse">
<stop offset="0.00243902" stop-color="#5599B7"/>
<stop offset="1" stop-color="#407DA0"/>
</linearGradient>
<linearGradient id="paint3_linear_723_332" x1="300.566" y1="634.061" x2="360.537" y2="523.603" gradientUnits="userSpaceOnUse">
<stop offset="0.00731707" stop-color="#496E9B"/>
<stop offset="1" stop-color="#3C578E"/>
</linearGradient>
<linearGradient id="paint4_linear_723_332" x1="212.563" y1="539.358" x2="212.563" y2="702.402" gradientUnits="userSpaceOnUse">
<stop offset="0.00731707" stop-color="#373C77"/>
<stop offset="1" stop-color="#455589"/>
</linearGradient>
<linearGradient id="paint5_linear_723_332" x1="382.826" y1="745.277" x2="382.826" y2="894.696" gradientUnits="userSpaceOnUse">
<stop offset="0.00731707" stop-color="#6EB2CC"/>
<stop offset="1" stop-color="#718FCC"/>
</linearGradient>
<linearGradient id="paint6_linear_723_332" x1="-534.481" y1="43.1552" x2="66.4038" y2="43.1552" gradientUnits="userSpaceOnUse">
<stop stop-color="#CCF4FA"/>
<stop offset="0.00243902" stop-color="#CCF4FA"/>
<stop offset="0.0959485" stop-color="#C2F0F7"/>
<stop offset="0.2526" stop-color="#A8E6EF"/>
<stop offset="0.4" stop-color="#8ADAE6"/>
<stop offset="0.4737" stop-color="#87D3E3"/>
<stop offset="0.5845" stop-color="#7FBEDA"/>
<stop offset="0.7186" stop-color="#719CCB"/>
<stop offset="0.8695" stop-color="#5E6EB7"/>
<stop offset="1" stop-color="#4C40A3"/>
</linearGradient>
<linearGradient id="paint7_linear_723_332" x1="408.644" y1="631.54" x2="408.644" y2="30.6406" gradientUnits="userSpaceOnUse">
<stop stop-color="#CCF4FA"/>
<stop offset="0.00243902" stop-color="#CCF4FA"/>
<stop offset="0.0959485" stop-color="#C2F0F7"/>
<stop offset="0.2526" stop-color="#A8E6EF"/>
<stop offset="0.4" stop-color="#8ADAE6"/>
<stop offset="0.4737" stop-color="#87D3E3"/>
<stop offset="0.5845" stop-color="#7FBEDA"/>
<stop offset="0.7186" stop-color="#719CCB"/>
<stop offset="0.8695" stop-color="#5E6EB7"/>
<stop offset="1" stop-color="#4C40A3"/>
</linearGradient>
<linearGradient id="paint8_linear_723_332" x1="168.401" y1="631.541" x2="168.401" y2="30.6395" gradientUnits="userSpaceOnUse">
<stop stop-color="#CCF4FA"/>
<stop offset="0.00243902" stop-color="#CCF4FA"/>
<stop offset="0.0959485" stop-color="#C2F0F7"/>
<stop offset="0.2526" stop-color="#A8E6EF"/>
<stop offset="0.4" stop-color="#8ADAE6"/>
<stop offset="0.4737" stop-color="#87D3E3"/>
<stop offset="0.5845" stop-color="#7FBEDA"/>
<stop offset="0.7186" stop-color="#719CCB"/>
<stop offset="0.8695" stop-color="#5E6EB7"/>
<stop offset="1" stop-color="#4C40A3"/>
</linearGradient>
<linearGradient id="paint9_linear_723_332" x1="480.021" y1="631.54" x2="480.021" y2="30.6396" gradientUnits="userSpaceOnUse">
<stop stop-color="#CCF4FA"/>
<stop offset="0.00243902" stop-color="#CCF4FA"/>
<stop offset="0.0959485" stop-color="#C2F0F7"/>
<stop offset="0.2526" stop-color="#A8E6EF"/>
<stop offset="0.4" stop-color="#8ADAE6"/>
<stop offset="0.4737" stop-color="#87D3E3"/>
<stop offset="0.5845" stop-color="#7FBEDA"/>
<stop offset="0.7186" stop-color="#719CCB"/>
<stop offset="0.8695" stop-color="#5E6EB7"/>
<stop offset="1" stop-color="#4C40A3"/>
</linearGradient>
<linearGradient id="paint10_linear_723_332" x1="655.37" y1="631.54" x2="655.37" y2="30.6397" gradientUnits="userSpaceOnUse">
<stop stop-color="#CCF4FA"/>
<stop offset="0.00243902" stop-color="#CCF4FA"/>
<stop offset="0.0959485" stop-color="#C2F0F7"/>
<stop offset="0.2526" stop-color="#A8E6EF"/>
<stop offset="0.4" stop-color="#8ADAE6"/>
<stop offset="0.4737" stop-color="#87D3E3"/>
<stop offset="0.5845" stop-color="#7FBEDA"/>
<stop offset="0.7186" stop-color="#719CCB"/>
<stop offset="0.8695" stop-color="#5E6EB7"/>
<stop offset="1" stop-color="#4C40A3"/>
</linearGradient>
<linearGradient id="paint11_linear_723_332" x1="690.852" y1="631.542" x2="690.852" y2="30.6395" gradientUnits="userSpaceOnUse">
<stop stop-color="#CCF4FA"/>
<stop offset="0.00243902" stop-color="#CCF4FA"/>
<stop offset="0.0959485" stop-color="#C2F0F7"/>
<stop offset="0.2526" stop-color="#A8E6EF"/>
<stop offset="0.4" stop-color="#8ADAE6"/>
<stop offset="0.4737" stop-color="#87D3E3"/>
<stop offset="0.5845" stop-color="#7FBEDA"/>
<stop offset="0.7186" stop-color="#719CCB"/>
<stop offset="0.8695" stop-color="#5E6EB7"/>
<stop offset="1" stop-color="#4C40A3"/>
</linearGradient>
<linearGradient id="paint12_linear_723_332" x1="80.9331" y1="631.542" x2="80.9331" y2="30.6392" gradientUnits="userSpaceOnUse">
<stop stop-color="#CCF4FA"/>
<stop offset="0.00243902" stop-color="#CCF4FA"/>
<stop offset="0.0959485" stop-color="#C2F0F7"/>
<stop offset="0.2526" stop-color="#A8E6EF"/>
<stop offset="0.4" stop-color="#8ADAE6"/>
<stop offset="0.4737" stop-color="#87D3E3"/>
<stop offset="0.5845" stop-color="#7FBEDA"/>
<stop offset="0.7186" stop-color="#719CCB"/>
<stop offset="0.8695" stop-color="#5E6EB7"/>
<stop offset="1" stop-color="#4C40A3"/>
</linearGradient>
<linearGradient id="paint13_linear_723_332" x1="202.646" y1="631.54" x2="202.646" y2="30.6398" gradientUnits="userSpaceOnUse">
<stop stop-color="#CCF4FA"/>
<stop offset="0.00243902" stop-color="#CCF4FA"/>
<stop offset="0.0959485" stop-color="#C2F0F7"/>
<stop offset="0.2526" stop-color="#A8E6EF"/>
<stop offset="0.4" stop-color="#8ADAE6"/>
<stop offset="0.4737" stop-color="#87D3E3"/>
<stop offset="0.5845" stop-color="#7FBEDA"/>
<stop offset="0.7186" stop-color="#719CCB"/>
<stop offset="0.8695" stop-color="#5E6EB7"/>
<stop offset="1" stop-color="#4C40A3"/>
</linearGradient>
<linearGradient id="paint14_linear_723_332" x1="291.588" y1="631.543" x2="291.588" y2="30.6375" gradientUnits="userSpaceOnUse">
<stop stop-color="#CCF4FA"/>
<stop offset="0.00243902" stop-color="#CCF4FA"/>
<stop offset="0.0959485" stop-color="#C2F0F7"/>
<stop offset="0.2526" stop-color="#A8E6EF"/>
<stop offset="0.4" stop-color="#8ADAE6"/>
<stop offset="0.4737" stop-color="#87D3E3"/>
<stop offset="0.5845" stop-color="#7FBEDA"/>
<stop offset="0.7186" stop-color="#719CCB"/>
<stop offset="0.8695" stop-color="#5E6EB7"/>
<stop offset="1" stop-color="#4C40A3"/>
</linearGradient>
<linearGradient id="paint15_linear_723_332" x1="270.605" y1="631.542" x2="270.605" y2="30.6394" gradientUnits="userSpaceOnUse">
<stop stop-color="#CCF4FA"/>
<stop offset="0.00243902" stop-color="#CCF4FA"/>
<stop offset="0.0959485" stop-color="#C2F0F7"/>
<stop offset="0.2526" stop-color="#A8E6EF"/>
<stop offset="0.4" stop-color="#8ADAE6"/>
<stop offset="0.4737" stop-color="#87D3E3"/>
<stop offset="0.5845" stop-color="#7FBEDA"/>
<stop offset="0.7186" stop-color="#719CCB"/>
<stop offset="0.8695" stop-color="#5E6EB7"/>
<stop offset="1" stop-color="#4C40A3"/>
</linearGradient>
<linearGradient id="paint16_linear_723_332" x1="541.202" y1="631.54" x2="541.202" y2="30.6395" gradientUnits="userSpaceOnUse">
<stop stop-color="#CCF4FA"/>
<stop offset="0.00243902" stop-color="#CCF4FA"/>
<stop offset="0.0959485" stop-color="#C2F0F7"/>
<stop offset="0.2526" stop-color="#A8E6EF"/>
<stop offset="0.4" stop-color="#8ADAE6"/>
<stop offset="0.4737" stop-color="#87D3E3"/>
<stop offset="0.5845" stop-color="#7FBEDA"/>
<stop offset="0.7186" stop-color="#719CCB"/>
<stop offset="0.8695" stop-color="#5E6EB7"/>
<stop offset="1" stop-color="#4C40A3"/>
</linearGradient>
<linearGradient id="paint17_linear_723_332" x1="649.24" y1="631.54" x2="649.24" y2="30.64" gradientUnits="userSpaceOnUse">
<stop stop-color="#CCF4FA"/>
<stop offset="0.00243902" stop-color="#CCF4FA"/>
<stop offset="0.0959485" stop-color="#C2F0F7"/>
<stop offset="0.2526" stop-color="#A8E6EF"/>
<stop offset="0.4" stop-color="#8ADAE6"/>
<stop offset="0.4737" stop-color="#87D3E3"/>
<stop offset="0.5845" stop-color="#7FBEDA"/>
<stop offset="0.7186" stop-color="#719CCB"/>
<stop offset="0.8695" stop-color="#5E6EB7"/>
<stop offset="1" stop-color="#4C40A3"/>
</linearGradient>
<linearGradient id="paint18_linear_723_332" x1="274.495" y1="631.54" x2="274.495" y2="30.6398" gradientUnits="userSpaceOnUse">
<stop stop-color="#CCF4FA"/>
<stop offset="0.00243902" stop-color="#CCF4FA"/>
<stop offset="0.0959485" stop-color="#C2F0F7"/>
<stop offset="0.2526" stop-color="#A8E6EF"/>
<stop offset="0.4" stop-color="#8ADAE6"/>
<stop offset="0.4737" stop-color="#87D3E3"/>
<stop offset="0.5845" stop-color="#7FBEDA"/>
<stop offset="0.7186" stop-color="#719CCB"/>
<stop offset="0.8695" stop-color="#5E6EB7"/>
<stop offset="1" stop-color="#4C40A3"/>
</linearGradient>
<linearGradient id="paint19_linear_723_332" x1="649.24" y1="631.541" x2="649.24" y2="30.6394" gradientUnits="userSpaceOnUse">
<stop stop-color="#CCF4FA"/>
<stop offset="0.00243902" stop-color="#CCF4FA"/>
<stop offset="0.0959485" stop-color="#C2F0F7"/>
<stop offset="0.2526" stop-color="#A8E6EF"/>
<stop offset="0.4" stop-color="#8ADAE6"/>
<stop offset="0.4737" stop-color="#87D3E3"/>
<stop offset="0.5845" stop-color="#7FBEDA"/>
<stop offset="0.7186" stop-color="#719CCB"/>
<stop offset="0.8695" stop-color="#5E6EB7"/>
<stop offset="1" stop-color="#4C40A3"/>
</linearGradient>
<linearGradient id="paint20_linear_723_332" x1="252.933" y1="745.579" x2="252.933" y2="902.751" gradientUnits="userSpaceOnUse">
<stop stop-color="#9AC8D7"/>
<stop offset="0.00731707" stop-color="#9AC8D7"/>
<stop offset="1" stop-color="#9CB0D7"/>
</linearGradient>
<linearGradient id="paint21_linear_723_332" x1="243.112" y1="745.579" x2="243.112" y2="902.752" gradientUnits="userSpaceOnUse">
<stop stop-color="#9AC8D7"/>
<stop offset="0.00731707" stop-color="#9AC8D7"/>
<stop offset="1" stop-color="#9CB0D7"/>
</linearGradient>
<linearGradient id="paint22_linear_723_332" x1="632.012" y1="745.579" x2="632.012" y2="902.752" gradientUnits="userSpaceOnUse">
<stop stop-color="#9AC8D7"/>
<stop offset="0.00731707" stop-color="#9AC8D7"/>
<stop offset="1" stop-color="#9CB0D7"/>
</linearGradient>
<linearGradient id="paint23_linear_723_332" x1="726.023" y1="745.579" x2="726.023" y2="902.752" gradientUnits="userSpaceOnUse">
<stop stop-color="#9AC8D7"/>
<stop offset="0.00731707" stop-color="#9AC8D7"/>
<stop offset="1" stop-color="#9CB0D7"/>
</linearGradient>
<linearGradient id="paint24_linear_723_332" x1="378.994" y1="745.579" x2="378.994" y2="902.752" gradientUnits="userSpaceOnUse">
<stop stop-color="#9AC8D7"/>
<stop offset="0.00731707" stop-color="#9AC8D7"/>
<stop offset="1" stop-color="#9CB0D7"/>
</linearGradient>
<linearGradient id="paint25_linear_723_332" x1="337.231" y1="745.578" x2="337.231" y2="902.752" gradientUnits="userSpaceOnUse">
<stop stop-color="#9AC8D7"/>
<stop offset="0.00731707" stop-color="#9AC8D7"/>
<stop offset="1" stop-color="#9CB0D7"/>
</linearGradient>
<linearGradient id="paint26_linear_723_332" x1="147.314" y1="745.579" x2="147.314" y2="902.752" gradientUnits="userSpaceOnUse">
<stop stop-color="#9AC8D7"/>
<stop offset="0.00731707" stop-color="#9AC8D7"/>
<stop offset="1" stop-color="#9CB0D7"/>
</linearGradient>
<linearGradient id="paint27_linear_723_332" x1="412.972" y1="745.579" x2="412.972" y2="902.752" gradientUnits="userSpaceOnUse">
<stop stop-color="#9AC8D7"/>
<stop offset="0.00731707" stop-color="#9AC8D7"/>
<stop offset="1" stop-color="#9CB0D7"/>
</linearGradient>
<linearGradient id="paint28_linear_723_332" x1="343.516" y1="1075.4" x2="343.516" y2="895.088" gradientUnits="userSpaceOnUse">
<stop offset="0.00731707" stop-color="#3B4072"/>
<stop offset="1" stop-color="#252851"/>
</linearGradient>
<linearGradient id="paint29_linear_723_332" x1="77.0071" y1="739.927" x2="77.0071" y2="857.543" gradientUnits="userSpaceOnUse">
<stop offset="0.00731707" stop-color="#3B4072"/>
<stop offset="1" stop-color="#252851"/>
</linearGradient>
<linearGradient id="paint30_linear_723_332" x1="382.826" y1="631.521" x2="382.826" y2="30.6295" gradientUnits="userSpaceOnUse">
<stop offset="0.00243902" stop-color="#A4E5F4"/>
<stop offset="0.4" stop-color="#60ACC4"/>
<stop offset="1" stop-color="#352968"/>
</linearGradient>
<linearGradient id="paint31_linear_723_332" x1="382.826" y1="1363.98" x2="382.826" y2="931.124" gradientUnits="userSpaceOnUse">
<stop offset="0.00731707" stop-color="#373766"/>
<stop offset="1" stop-color="#19193D"/>
</linearGradient>
<linearGradient id="paint32_linear_723_332" x1="640.129" y1="657.903" x2="640.129" y2="855.77" gradientUnits="userSpaceOnUse">
<stop offset="0.00731707" stop-color="#373766"/>
<stop offset="1" stop-color="#19193D"/>
</linearGradient>
<linearGradient id="paint33_linear_723_332" x1="473.91" y1="680.541" x2="473.91" y2="875.063" gradientUnits="userSpaceOnUse">
<stop offset="0.00731707" stop-color="#373766"/>
<stop offset="1" stop-color="#19193D"/>
</linearGradient>
</defs>
</svg>
