<svg width="766" height="1361" viewBox="0 0 766 1361" fill="none" xmlns="http://www.w3.org/2000/svg">
<path d="M734.9 1360.9H30.7C13.7 1360.9 0 1347.2 0 1330.2V30.7C0 13.7 13.7 0 30.7 0H734.8C751.8 0 765.5 13.7 765.5 30.7V1330.2C765.6 1347.2 751.8 1360.9 734.9 1360.9Z" fill="url(#paint0_linear_723_333)"/>
<path d="M734.9 1360.9H30.7C13.7 1360.9 0 1347.2 0 1330.2V30.7C0 13.7 13.7 0 30.7 0H734.8C751.8 0 765.5 13.7 765.5 30.7V1330.2C765.6 1347.2 751.8 1360.9 734.9 1360.9Z" fill="url(#paint1_linear_723_333)"/>
<path d="M579.1 473.9C518.7 473.9 469.6 424.9 469.6 364.4C469.6 303.9 518.6 254.9 579.1 254.9C639.5 254.9 688.6 303.9 688.6 364.4C688.6 424.9 639.6 473.9 579.1 473.9ZM579.1 238.2C509.4 238.2 452.8 294.7 452.8 364.5C452.8 434.3 509.3 490.8 579.1 490.8C648.8 490.8 705.4 434.3 705.4 364.5C705.4 294.7 648.9 238.2 579.1 238.2Z" fill="url(#paint2_linear_723_333)"/>
<path d="M579.1 255C518.7 255 469.6 304 469.6 364.5C469.6 424.9 518.6 474 579.1 474C639.5 474 688.6 425 688.6 364.5C688.6 304 639.6 255 579.1 255Z" fill="url(#paint3_linear_723_333)"/>
<path d="M274.5 475.3C274.5 475.3 306.6 437.1 323.4 437.1C340.2 437.1 390.2 535.7 410.4 529.4C430.5 523.1 437.3 492.5 463.9 524.5C490.5 556.5 597.1 679.5 597.1 679.5L458.8 713.9L274.5 475.3Z" fill="url(#paint4_linear_723_333)"/>
<path d="M25.3 338.2C25.3 338.2 78.7 284.3 104.4 284.3C128.7 284.3 202.6 424.2 202.6 424.2L87.9 499.3L25.3 338.2Z" fill="url(#paint5_linear_723_333)"/>
<path d="M765.6 739.5C765.6 739.5 692.7 596.7 658.5 596.7C649.8 596.7 542.5 693.9 475.1 642.3C420.7 600.7 294.5 448.8 247.7 391.6C238 379.8 220.4 377.7 208.1 387C184.1 405.1 147.6 429.5 138.3 417.8C124.1 399.8 0 225.6 0 225.6V739.4H765.6V739.5Z" fill="url(#paint6_linear_723_333)"/>
<path d="M0 444.8C0 444.8 29.1 396.9 53.9 410.1C67.3 417.2 147.7 527.3 162 531.4C176.3 535.5 201.8 489.6 249.7 552.8C297.6 616 425 739.5 425 739.5H0V444.8Z" fill="url(#paint7_linear_723_333)"/>
<path d="M579.1 454.6C628.861 454.6 669.2 414.261 669.2 364.5C669.2 314.739 628.861 274.4 579.1 274.4C529.339 274.4 489 314.739 489 364.5C489 414.261 529.339 454.6 579.1 454.6Z" fill="#FBF8F1"/>
<path d="M0 739.5H765.6V1327L0 1319V739.5Z" fill="url(#paint8_linear_723_333)"/>
<path d="M256.7 777.1C175.5 777.1 103.1 779.2 56.3 782.5C103.1 785.8 175.5 787.9 256.7 787.9C337.9 787.9 410.3 785.8 457.1 782.5C410.3 779.2 338 777.1 256.7 777.1Z" fill="url(#paint9_linear_723_333)"/>
<path d="M246.9 819.5C216.5 819.5 189.4 821.6 171.8 824.9C189.3 828.2 216.4 830.3 246.9 830.3C277.3 830.3 304.4 828.2 322 824.9C304.5 821.6 277.4 819.5 246.9 819.5Z" fill="url(#paint10_linear_723_333)"/>
<path d="M635.8 757.9C594 757.9 556.7 760 532.6 763.3C556.7 766.6 594 768.7 635.8 768.7C677.6 768.7 714.9 766.6 739 763.3C714.9 760 677.7 757.9 635.8 757.9Z" fill="url(#paint11_linear_723_333)"/>
<path d="M729.8 779.8C718.8 779.8 708.9 780.9 702.6 782.5C709 784.1 718.8 785.2 729.8 785.2C740.8 785.2 750.7 784.1 757 782.5C750.7 780.8 740.9 779.8 729.8 779.8Z" fill="url(#paint12_linear_723_333)"/>
<path d="M382.8 804C369 804 356.8 805.1 348.8 806.7C356.7 808.3 369 809.4 382.8 809.4C396.6 809.4 408.8 808.3 416.8 806.7C408.8 805 396.6 804 382.8 804Z" fill="url(#paint13_linear_723_333)"/>
<path d="M341 861.9C310.9 861.9 284.2 863 266.9 864.6C284.2 866.2 311 867.3 341 867.3C371.1 867.3 397.8 866.2 415.1 864.6C397.9 862.9 371.1 861.9 341 861.9Z" fill="url(#paint14_linear_723_333)"/>
<path d="M151.1 848.4C121 848.4 94.3 849.5 77 851.1C94.3 852.7 121.1 853.8 151.1 853.8C181.2 853.8 207.9 852.7 225.2 851.1C207.9 849.5 181.2 848.4 151.1 848.4Z" fill="url(#paint15_linear_723_333)"/>
<path d="M416.8 839.2C386.7 839.2 360 840.3 342.7 841.9C360 843.5 386.8 844.6 416.8 844.6C446.8 844.6 473.6 843.5 490.9 841.9C473.6 840.3 446.8 839.2 416.8 839.2Z" fill="url(#paint16_linear_723_333)"/>
<path d="M0 851.1C0 851.1 191.5 850.1 475.1 1057.6C753.8 1261.5 677.3 1360.9 677.3 1360.9L0 1326.3V851.1Z" fill="url(#paint17_linear_723_333)"/>
<path d="M34.1001 853.8L21.6001 873.7H33.9C32.5 876.5 30.9001 879.5 29.1001 882.7H125C123.2 879.5 121.6 876.5 120.2 873.7H132.5L120 853.8L135.9 854.5C130.9 848.6 124.1 839.5 124.1 839.5H131.7C121.7 832.5 110.1 807.9 102.8 790.5L111.6 793.6L100.4 772.2H114.1C96.9001 758.8 77.1001 699 77.1001 699C77.1001 699 57.4001 758.8 40.1001 772.2H53.8L42.6001 793.6L51.4 790.5C44.1 807.9 32.5 832.5 22.5 839.5H30.1001C30.1001 839.5 23.4 848.6 18.3 854.5L34.1001 853.8Z" fill="url(#paint18_linear_723_333)"/>
<path d="M0 1330.2C0 1347.2 13.7 1360.9 30.7 1360.9H734.8C751.8 1360.9 765.5 1347.2 765.5 1330.2V828C409.8 859.1 0 1049.9 0 1049.9V1330.2Z" fill="url(#paint19_linear_723_333)"/>
<path d="M0 1330.2C0 1347.2 13.7 1360.9 30.7 1360.9H734.8C751.8 1360.9 765.5 1347.2 765.5 1330.2V828C409.8 859.1 0 1049.9 0 1049.9V1330.2Z" fill="url(#paint20_linear_723_333)"/>
<path d="M567.9 834.1L546.8 867.6H567.5C565.1 872.3 562.4 877.4 559.4 882.8H720.7C717.7 877.4 715 872.4 712.6 867.6H733.3L712.2 834.1L738.9 835.3C730.4 825.4 719.1 810.1 719.1 810.1H732C715.2 798.3 695.6 756.9 683.3 727.6L698 732.8L679.2 696.9H702.3C673.3 674.4 640.1 573.8 640.1 573.8C640.1 573.8 606.9 674.4 577.9 696.9H601L582.2 732.8L596.9 727.6C584.6 756.9 565 798.2 548.2 810.1H561C561 810.1 549.7 825.4 541.2 835.3L567.9 834.1Z" fill="url(#paint21_linear_723_333)"/>
<path d="M415.9 883.6L398.9 910.5H415.5C413.6 914.3 411.4 918.4 409 922.7H538.7C536.3 918.4 534.1 914.3 532.2 910.5H548.8L531.8 883.6L553.3 884.5C546.5 876.6 537.4 864.3 537.4 864.3H547.6C534.1 854.8 518.4 821.6 508.5 798L520.3 802.2L505.2 773.3H523.8C500.5 755.2 473.8 674.4 473.8 674.4C473.8 674.4 447.1 755.3 423.8 773.3H442.4L427.3 802.2L439.1 798C429.2 821.6 413.5 854.8 400 864.3H410.2C410.2 864.3 401.1 876.6 394.3 884.5L415.9 883.6Z" fill="url(#paint22_linear_723_333)"/>
<defs>
<linearGradient id="paint0_linear_723_333" x1="382.799" y1="665.167" x2="382.799" y2="64.2759" gradientUnits="userSpaceOnUse">
<stop stop-color="#FFF5DC"/>
<stop offset="1" stop-color="#F46494"/>
</linearGradient>
<linearGradient id="paint1_linear_723_333" x1="382.799" y1="665.167" x2="382.799" y2="64.2759" gradientUnits="userSpaceOnUse">
<stop stop-color="#FFF5DC"/>
<stop offset="1" stop-color="#F46494"/>
</linearGradient>
<linearGradient id="paint2_linear_723_333" x1="579.164" y1="665.192" x2="579.164" y2="64.291" gradientUnits="userSpaceOnUse">
<stop stop-color="#FEF6E1"/>
<stop offset="1" stop-color="#F687AA"/>
</linearGradient>
<linearGradient id="paint3_linear_723_333" x1="579.164" y1="665.192" x2="579.164" y2="64.291" gradientUnits="userSpaceOnUse">
<stop stop-color="#FDF6E5"/>
<stop offset="1" stop-color="#F7A2BB"/>
</linearGradient>
<linearGradient id="paint4_linear_723_333" x1="435.74" y1="642.728" x2="435.74" y2="441.19" gradientUnits="userSpaceOnUse">
<stop offset="0.00731707" stop-color="#F495A9"/>
<stop offset="1" stop-color="#E0688D"/>
</linearGradient>
<linearGradient id="paint5_linear_723_333" x1="115.592" y1="433.68" x2="111.08" y2="288.933" gradientUnits="userSpaceOnUse">
<stop offset="0.00731707" stop-color="#F495A9"/>
<stop offset="1" stop-color="#E0688D"/>
</linearGradient>
<linearGradient id="paint6_linear_723_333" x1="301.813" y1="639.147" x2="364.379" y2="518.169" gradientUnits="userSpaceOnUse">
<stop offset="0.00731707" stop-color="#E879A6"/>
<stop offset="1" stop-color="#CC5C8A"/>
</linearGradient>
<linearGradient id="paint7_linear_723_333" x1="212.537" y1="804.818" x2="212.537" y2="580.109" gradientUnits="userSpaceOnUse">
<stop offset="0.00731707" stop-color="#D86498"/>
<stop offset="1" stop-color="#B74E7E"/>
</linearGradient>
<linearGradient id="paint8_linear_723_333" x1="382.799" y1="722.116" x2="382.799" y2="845.601" gradientUnits="userSpaceOnUse">
<stop stop-color="#FCB6DC"/>
<stop offset="1" stop-color="#E2A3E2"/>
</linearGradient>
<linearGradient id="paint9_linear_723_333" x1="256.738" y1="721.116" x2="256.738" y2="851.733" gradientUnits="userSpaceOnUse">
<stop stop-color="#FCCEE4"/>
<stop offset="1" stop-color="#EBC2E8"/>
</linearGradient>
<linearGradient id="paint10_linear_723_333" x1="246.925" y1="721.116" x2="246.925" y2="851.733" gradientUnits="userSpaceOnUse">
<stop stop-color="#FCCEE4"/>
<stop offset="1" stop-color="#EBC2E8"/>
</linearGradient>
<linearGradient id="paint11_linear_723_333" x1="635.838" y1="721.117" x2="635.838" y2="851.732" gradientUnits="userSpaceOnUse">
<stop stop-color="#FCCEE4"/>
<stop offset="1" stop-color="#EBC2E8"/>
</linearGradient>
<linearGradient id="paint12_linear_723_333" x1="729.838" y1="721.117" x2="729.838" y2="851.731" gradientUnits="userSpaceOnUse">
<stop stop-color="#FCCEE4"/>
<stop offset="1" stop-color="#EBC2E8"/>
</linearGradient>
<linearGradient id="paint13_linear_723_333" x1="382.806" y1="721.116" x2="382.806" y2="851.733" gradientUnits="userSpaceOnUse">
<stop stop-color="#FCCEE4"/>
<stop offset="1" stop-color="#EBC2E8"/>
</linearGradient>
<linearGradient id="paint14_linear_723_333" x1="341.04" y1="721.116" x2="341.04" y2="851.732" gradientUnits="userSpaceOnUse">
<stop stop-color="#FCCEE4"/>
<stop offset="1" stop-color="#EBC2E8"/>
</linearGradient>
<linearGradient id="paint15_linear_723_333" x1="151.118" y1="721.116" x2="151.118" y2="851.732" gradientUnits="userSpaceOnUse">
<stop stop-color="#FCCEE4"/>
<stop offset="1" stop-color="#EBC2E8"/>
</linearGradient>
<linearGradient id="paint16_linear_723_333" x1="416.796" y1="721.116" x2="416.796" y2="851.732" gradientUnits="userSpaceOnUse">
<stop stop-color="#FCCEE4"/>
<stop offset="1" stop-color="#EBC2E8"/>
</linearGradient>
<linearGradient id="paint17_linear_723_333" x1="343.489" y1="1156" x2="343.489" y2="905.171" gradientUnits="userSpaceOnUse">
<stop stop-color="#9E4373"/>
<stop offset="1" stop-color="#662E55"/>
</linearGradient>
<linearGradient id="paint18_linear_723_333" x1="76.981" y1="698.808" x2="76.981" y2="825.122" gradientUnits="userSpaceOnUse">
<stop stop-color="#9E4373"/>
<stop offset="1" stop-color="#662E55"/>
</linearGradient>
<linearGradient id="paint19_linear_723_333" x1="382.8" y1="665.167" x2="382.8" y2="64.2759" gradientUnits="userSpaceOnUse">
<stop stop-color="#FFF5DC"/>
<stop offset="1" stop-color="#F46494"/>
</linearGradient>
<linearGradient id="paint20_linear_723_333" x1="382.8" y1="1350.72" x2="382.8" y2="963.74" gradientUnits="userSpaceOnUse">
<stop stop-color="#66305C"/>
<stop offset="1" stop-color="#421A3A"/>
</linearGradient>
<linearGradient id="paint21_linear_723_333" x1="640.103" y1="618.143" x2="640.103" y2="833.256" gradientUnits="userSpaceOnUse">
<stop offset="0.0121951" stop-color="#BC5E94"/>
<stop offset="0.1314" stop-color="#9E4E80"/>
<stop offset="0.2788" stop-color="#7F3E6D"/>
<stop offset="0.4045" stop-color="#6D3460"/>
<stop offset="0.4927" stop-color="#66305C"/>
<stop offset="1" stop-color="#421A3A"/>
</linearGradient>
<linearGradient id="paint22_linear_723_333" x1="473.883" y1="679.652" x2="473.883" y2="861.122" gradientUnits="userSpaceOnUse">
<stop offset="0.0121951" stop-color="#BC5E94"/>
<stop offset="0.0317385" stop-color="#B65B90"/>
<stop offset="0.1634" stop-color="#93487A"/>
<stop offset="0.2878" stop-color="#7A3B69"/>
<stop offset="0.401" stop-color="#6B335F"/>
<stop offset="0.4927" stop-color="#66305C"/>
<stop offset="1" stop-color="#421A3A"/>
</linearGradient>
</defs>
</svg>
